<?xml version="1.0" ?><!DOCTYPE svg  PUBLIC '-//W3C//DTD SVG 1.1//EN'  'http://www.w3.org/Graphics/SVG/1.1/DTD/svg11.dtd'><svg height="512px" style="enable-background:new 0 0 512 512;" version="1.1" viewBox="0 0 512 512" width="512px" xml:space="preserve" xmlns="http://www.w3.org/2000/svg" xmlns:xlink="http://www.w3.org/1999/xlink"><g id="_x31_6_x2C__AfterEffects_x2C__After_Effects_x2C__Adobe"><g><path d="M0,0v512h512V0H0z M270.569,366h-37.128c-1.66,0-2.324-0.74-2.988-2.324L209.236,294h-75.911l-20.226,68.886    c-0.328,2.374-1.328,3.114-3.315,3.114H75.97c-2.319,0-2.982-1.234-2.319-4.012c17.902-60.613,48.069-161.708,69.286-230.25    c0.991-3.961,1.987-7.723,2.651-21.591c0-1.581,0.996-2.147,1.987-2.147h45.75c1.66,0,1.987,0.221,2.651,1.806    c24.537,81.218,51.384,170.639,76.58,252.65C273.22,364.837,272.556,366,270.569,366z M428.222,276.592    c-4.054,1.949-16.896,2.408-35.487,2.408h-68.949c0.678,30,16.544,50.617,50.68,50.617c12.507,0,27.853-2.346,42.386-9.752    c1.014-0.389,2.149-0.068,2.149,1.881v31.19c0,2.73-0.799,3.508-2.149,4.292c-13.18,7.795-29.107,10.525-50.74,10.913    c-61.511,0-83.856-48.354-83.856-97.479c0-55.755,28.712-99.825,79.403-99.825c49.688,0,69.618,43.721,69.618,79.984    C431.275,267.584,429.572,275.419,428.222,276.592z"/><path d="M359.582,204.469c-21.971,0-33.094,19.531-35.797,44.531h54.077c12.507,0,14.138-1.724,14.138-3.286    c0-0.776,0-2.726,0-4.288C392,229.733,385.605,204.469,359.582,204.469z"/><path d="M170.453,147c-4.97,26-18.566,71-28.511,108h58.345c-6.629-27-22.872-80-29.502-108H170.453z"/></g></g><g id="Layer_1"/></svg>