<?xml version="1.0" encoding="UTF-8" standalone="no"?>
<!DOCTYPE svg PUBLIC "-//W3C//DTD SVG 1.1//EN" "http://www.w3.org/Graphics/SVG/1.1/DTD/svg11.dtd">
<svg width="100%" height="100%" viewBox="0 0 700 700" version="1.1" xmlns="http://www.w3.org/2000/svg" xmlns:xlink="http://www.w3.org/1999/xlink" xml:space="preserve" xmlns:serif="http://www.serif.com/" style="fill-rule:evenodd;clip-rule:evenodd;stroke-linejoin:round;stroke-miterlimit:2;">
    <g id="agile">
        <g transform="matrix(1.43285,0,0,1.43285,-157.561,-46.0333)">
            <path d="M361.2,95.73C455.177,102.878 529.2,181.394 529.2,277.2C529.2,376.782 449.227,457.68 350,459.18L350,459.2L137.2,459.2L137.2,403.2L344.4,403.2L344.4,403.168C345.334,403.192 346.267,403.2 347.201,403.2C416.791,403.2 473.201,346.79 473.201,277.2C473.201,212.345 424.201,158.93 361.201,151.97L361.201,184.802L305.201,128.802L361.201,72.802L361.2,95.73ZM205.97,392C180.486,360.684 165.204,320.727 165.204,277.2C165.204,185.938 232.38,110.36 319.984,97.22L288.406,128.798L314.968,155.36C260.999,169.602 221.206,218.751 221.206,277.2C221.206,328.243 251.558,372.2 295.198,392L205.97,392ZM534.81,487.199L534.81,375.199L590.81,431.199L534.81,487.199Z" style="fill-rule:nonzero;"/>
        </g>
        <g transform="matrix(1.43285,0,0,1.43285,-157.561,-46.0333)">
            <path d="M493.66,403.2L545.996,403.2L545.996,459.2L417.196,459.2L417.196,457.329C446.973,445.751 473.169,427.001 493.661,403.2L493.66,403.2Z"/>
        </g>
    </g>
</svg>
