<?xml version="1.0" encoding="UTF-8" standalone="no"?>
<!DOCTYPE svg PUBLIC "-//W3C//DTD SVG 1.1//EN" "http://www.w3.org/Graphics/SVG/1.1/DTD/svg11.dtd">
<svg width="100%" height="100%" viewBox="0 0 509 512" version="1.1" xmlns="http://www.w3.org/2000/svg" xmlns:xlink="http://www.w3.org/1999/xlink" xml:space="preserve" xmlns:serif="http://www.serif.com/" style="fill-rule:evenodd;clip-rule:evenodd;stroke-linecap:round;stroke-linejoin:round;stroke-miterlimit:1.5;">
    <g transform="matrix(1,0,0,1,-108,-82)">
        <g id="clay">
            <path d="M607.918,309.683L500.07,263.214L417.993,287.22C417.993,287.22 326.73,269.063 309.606,264.992C292.481,260.92 291.181,220.584 327.026,224.595C359.527,228.232 375.489,230.407 390.578,223.854C405.667,217.3 423.612,199.814 406.205,188.481C388.798,177.148 350.401,155.561 340.251,157.365C330.102,159.17 278.602,174.769 272.249,182.22C265.895,189.671 219.957,243.988 207.776,245.086C195.595,246.185 168.474,247.821 174.074,233.933C179.674,220.046 215.371,162.751 221.176,155.501C226.981,148.252 324.351,90.06 335.692,89.582C347.033,89.105 457.745,96.398 475.744,103.889C493.742,111.38 608.07,166.446 609.013,176.999C609.956,187.552 607.918,309.683 607.918,309.683Z" style="fill:none;stroke:black;stroke-width:15px;"/>
            <g transform="matrix(-1,-1.22465e-16,1.22465e-16,-1,724.846,675.751)">
                <path d="M607.918,309.683L500.07,263.214L417.993,287.22C417.993,287.22 326.73,269.063 309.606,264.992C292.481,260.92 291.181,220.584 327.026,224.595C359.527,228.232 375.489,230.407 390.578,223.854C405.667,217.3 423.612,199.814 406.205,188.481C388.798,177.148 350.401,155.561 340.251,157.365C330.102,159.17 278.602,174.769 272.249,182.22C265.895,189.671 219.957,243.988 207.776,245.086C195.595,246.185 168.474,247.821 174.074,233.933C179.674,220.046 215.371,162.751 221.176,155.501C226.981,148.252 324.351,90.06 335.692,89.582C347.033,89.105 457.745,96.398 475.744,103.889C493.742,111.38 608.07,166.446 609.013,176.999C609.956,187.552 607.918,309.683 607.918,309.683Z" style="fill:none;stroke:black;stroke-width:15px;"/>
            </g>
            <path d="M534.85,430.062C568.535,400.914 522.349,320.885 457.133,366.068" style="fill:none;stroke:black;stroke-width:15px;"/>
            <path d="M516.323,357.241C516.323,357.241 534.669,302.488 476.461,270.119" style="fill:none;stroke:black;stroke-width:15px;"/>
            <path d="M192.039,245.762C182.56,265.537 188.076,340.466 270.628,313.68" style="fill:none;stroke:black;stroke-width:15px;"/>
            <g transform="matrix(1,0,0,1,26.1666,70.464)">
                <path d="M192.039,245.762C184.587,261.308 185.949,312.938 223.168,334.89" style="fill:none;stroke:black;stroke-width:15px;"/>
            </g>
            <g transform="matrix(1,0,0,1,82.3063,44.6395)">
                <path d="M192.039,245.762C182.56,265.537 210.728,300.921 246.13,284.99" style="fill:none;stroke:black;stroke-width:15px;"/>
            </g>
        </g>
    </g>
</svg>
