<?xml version="1.0" ?><!DOCTYPE svg  PUBLIC '-//W3C//DTD SVG 1.1//EN'  'http://www.w3.org/Graphics/SVG/1.1/DTD/svg11.dtd'><svg height="512px" style="enable-background:new 0 0 512 512;" version="1.1" viewBox="0 0 512 512" width="512px" xml:space="preserve" xmlns="http://www.w3.org/2000/svg" xmlns:xlink="http://www.w3.org/1999/xlink"><g id="_x31_2_x2C__Flash_x2C__Adobe_x2C__Professional"><path d="M0.564,0.569v510.867h510.866V0.569H0.564z M272.43,148.789h-93.472v73.223h83.859c1.992,0,2.655,0.771,2.655,2.697v31.988   c0,1.926-0.995,2.701-2.655,2.701h-83.859v100.197c0,2.314-0.664,3.08-2.651,3.08h-35.468c-1.323,0-1.987-1.149-1.987-3.08V114.106   c0-2.315,0.33-2.698,2.319-2.698h127.613c1.991,0,2.656,0.383,2.988,2.698l2.978,31.213   C275.085,147.634,274.422,148.789,272.43,148.789z M378.114,360.609c0,2.693-0.149,3.469-2.104,4.236   c-3.582,1.93-11.221,3.853-20.339,3.853c-20.843,0-35.814-10.016-35.814-47.4V126.206v-14.987v-1.98h0.785c0.291,0,1.016,0,2.446,0   h33.874c0.383,0,0.7,0,0.985,0v1.98v14.987v192.782c0,11.946,4.877,14.644,10.741,14.644c1.953,0,5.525-0.384,8.13-0.768   c0.978-0.393,1.295,0.384,1.295,1.928V360.609z"/></g><g id="Layer_1"/></svg>