<?xml version="1.0" ?><!DOCTYPE svg  PUBLIC '-//W3C//DTD SVG 1.1//EN'  'http://www.w3.org/Graphics/SVG/1.1/DTD/svg11.dtd'><svg enable-background="new 0 0 512 512" height="512px" id="Layer_3" version="1.1" viewBox="0 0 512 512" width="512px" xml:space="preserve" xmlns="http://www.w3.org/2000/svg" xmlns:xlink="http://www.w3.org/1999/xlink"><g><g><path d="M256,322.6c30.2,0,54.7-24.6,54.7-54.7s-24.6-54.7-54.7-54.7s-54.7,24.6-54.7,54.7S225.8,322.6,256,322.6z M256,225.1     c23.6,0,42.7,19.2,42.7,42.7s-19.2,42.7-42.7,42.7s-42.7-19.2-42.7-42.7S232.4,225.1,256,225.1z"/><path d="M134.3,196.6h12.6c3.3,0,6-2.7,6-6c0-3.3-2.7-6-6-6h-12.6c-3.3,0-6,2.7-6,6C128.3,193.9,131,196.6,134.3,196.6z"/><path d="M357.7,196.6h25.2c3.3,0,6-2.7,6-6c0-3.3-2.7-6-6-6h-25.2c-3.3,0-6,2.7-6,6C351.7,193.9,354.4,196.6,357.7,196.6z"/><path d="M400,161.6h-69.7c-6.8,0-13.1-3.3-17-8.9c-6.1-8.8-16.1-14.1-26.9-14.1h-61c-10.7,0-20.8,5.3-26.9,14.1     c-3.9,5.6-10.2,8.9-17,8.9h-12.8v-13c0-3.3-2.7-6-6-6h-43.3c-3.3,0-6,2.7-6,6v13H112c-8.2,0-14.9,6.7-14.9,14.9v183.3     c0,8.2,6.7,14.9,14.9,14.9H400c8.2,0,14.9-6.7,14.9-14.9V176.4C414.9,168.3,408.2,161.6,400,161.6z M402.9,341.1h-17.7v-93.5     h17.7V341.1z M125.5,154.6h31.3v7h-31.3V154.6z M112,173.6h7.6h43.3h18.8c10.7,0,20.8-5.3,26.9-14.1c3.9-5.6,10.2-8.9,17-8.9h61     c6.8,0,13.1,3.3,17,8.9c6.1,8.8,16.1,14.1,26.9,14.1H400c1.6,0,2.9,1.3,2.9,2.9V214h-82.7c-15.6-18-38.6-29.4-64.2-29.4     S207.4,196,191.8,214h-82.7v-37.6C109.1,174.9,110.4,173.6,112,173.6z M256,196.6c40.2,0,73,32.7,73,73c0,40.2-32.7,73-73,73     s-73-32.7-73-73C183,229.3,215.8,196.6,256,196.6z M400,362.6H112c-1.6,0-2.9-1.3-2.9-2.9V226h74c-7.6,12.7-12,27.6-12,43.5     c0,46.8,38.1,85,85,85s85-38.1,85-85c0-15.9-4.4-30.8-12-43.5h74v9.5h-23.7c-3.3,0-6,2.7-6,6v105.5c0,3.3,2.7,6,6,6h23.7v6.7     C402.9,361.3,401.6,362.6,400,362.6z"/></g></g></svg>