<?xml version="1.0" ?><svg data-name="Layer 1" id="Layer_1" viewBox="0 0 32 32" xmlns="http://www.w3.org/2000/svg"><title/><path d="M30,13H28.31a7,7,0,0,0-12.63,0H2a2,2,0,0,0-2,2v9a2,2,0,0,0,2,2H30a2,2,0,0,0,2-2V15A2,2,0,0,0,30,13Zm-8-3a6,6,0,1,1-6,6A6,6,0,0,1,22,10Zm9,14a1,1,0,0,1-1,1H2a1,1,0,0,1-1-1V15a1,1,0,0,1,1-1H15.29a7,7,0,1,0,13.41,0H30a1,1,0,0,1,1,1v9Z"/><rect height="1" width="5" x="3" y="16"/><rect height="1" width="5" x="3" y="19"/><rect height="1" width="5" x="3" y="22"/><path d="M22,20a4,4,0,1,1,4-4A4,4,0,0,1,22,20Zm0-7a3,3,0,1,0,3,3A3,3,0,0,0,22,13Z"/></svg>